<mxfile host="65bd71144e">
    <diagram id="o-IHR4I-kUrSD1P8VJlu" name="Page-1">
        <mxGraphModel dx="1607" dy="720" grid="1" gridSize="10" guides="1" tooltips="1" connect="1" arrows="1" fold="1" page="1" pageScale="1" pageWidth="850" pageHeight="1100" math="0" shadow="0">
            <root>
                <mxCell id="0"/>
                <mxCell id="1" parent="0"/>
                <mxCell id="17" value="" style="ellipse;whiteSpace=wrap;html=1;fillColor=#CC0000;fontColor=#ffffff;strokeColor=#CC0000;strokeWidth=3;" vertex="1" parent="1">
                    <mxGeometry x="364" y="330" width="126" height="60" as="geometry"/>
                </mxCell>
                <mxCell id="14" value="" style="ellipse;whiteSpace=wrap;html=1;fillColor=none;fontColor=#ffffff;strokeColor=#CC0000;strokeWidth=3;" vertex="1" parent="1">
                    <mxGeometry x="322" y="290" width="210" height="140" as="geometry"/>
                </mxCell>
                <mxCell id="15" value="" style="rounded=1;whiteSpace=wrap;html=1;fillColor=default;" vertex="1" parent="1">
                    <mxGeometry x="394" y="240" width="66" height="120" as="geometry"/>
                </mxCell>
                <mxCell id="2" value="" style="verticalAlign=top;verticalLabelPosition=bottom;labelPosition=center;align=center;html=1;outlineConnect=0;gradientDirection=north;strokeWidth=2;shape=mxgraph.networks.satellite;rotation=-80;" vertex="1" parent="1">
                    <mxGeometry x="250" y="30" width="100" height="100" as="geometry"/>
                </mxCell>
                <mxCell id="3" value="" style="verticalAlign=top;verticalLabelPosition=bottom;labelPosition=center;align=center;html=1;outlineConnect=0;gradientDirection=north;strokeWidth=2;shape=mxgraph.networks.satellite;direction=south;rotation=-195;" vertex="1" parent="1">
                    <mxGeometry x="50" y="140" width="100" height="100" as="geometry"/>
                </mxCell>
                <mxCell id="4" value="" style="verticalAlign=top;verticalLabelPosition=bottom;labelPosition=center;align=center;html=1;outlineConnect=0;gradientDirection=north;strokeWidth=2;shape=mxgraph.networks.satellite;rotation=-10;" vertex="1" parent="1">
                    <mxGeometry x="520" y="30" width="100" height="100" as="geometry"/>
                </mxCell>
                <mxCell id="5" value="" style="verticalAlign=top;verticalLabelPosition=bottom;labelPosition=center;align=center;html=1;outlineConnect=0;gradientDirection=north;strokeWidth=2;shape=mxgraph.networks.satellite;rotation=15;" vertex="1" parent="1">
                    <mxGeometry x="720" y="130" width="100" height="100" as="geometry"/>
                </mxCell>
                <mxCell id="9" value="" style="verticalLabelPosition=bottom;verticalAlign=top;html=1;shadow=0;dashed=0;strokeWidth=1;shape=mxgraph.android.phone2;strokeColor=#c0c0c0;fillColor=default;" vertex="1" parent="1">
                    <mxGeometry x="394" y="240" width="61.54" height="120" as="geometry"/>
                </mxCell>
                <mxCell id="10" value="" style="endArrow=none;html=1;entryX=0.07;entryY=0.93;entryDx=0;entryDy=0;entryPerimeter=0;" edge="1" parent="1" source="9" target="3">
                    <mxGeometry width="50" height="50" relative="1" as="geometry">
                        <mxPoint x="610" y="440" as="sourcePoint"/>
                        <mxPoint x="660" y="390" as="targetPoint"/>
                    </mxGeometry>
                </mxCell>
                <mxCell id="11" value="" style="endArrow=none;html=1;entryX=0.07;entryY=0.93;entryDx=0;entryDy=0;entryPerimeter=0;exitX=0.422;exitY=0;exitDx=0;exitDy=0;exitPerimeter=0;" edge="1" parent="1" source="9" target="2">
                    <mxGeometry width="50" height="50" relative="1" as="geometry">
                        <mxPoint x="404" y="302.68342974766665" as="sourcePoint"/>
                        <mxPoint x="153" y="243" as="targetPoint"/>
                    </mxGeometry>
                </mxCell>
                <mxCell id="12" value="" style="endArrow=none;html=1;entryX=0.07;entryY=0.93;entryDx=0;entryDy=0;entryPerimeter=0;exitX=0.832;exitY=-0.02;exitDx=0;exitDy=0;exitPerimeter=0;" edge="1" parent="1" source="9" target="4">
                    <mxGeometry width="50" height="50" relative="1" as="geometry">
                        <mxPoint x="414" y="312.68342974766665" as="sourcePoint"/>
                        <mxPoint x="163" y="253" as="targetPoint"/>
                    </mxGeometry>
                </mxCell>
                <mxCell id="13" value="" style="endArrow=none;html=1;entryX=0.07;entryY=0.93;entryDx=0;entryDy=0;entryPerimeter=0;exitX=1.002;exitY=0.394;exitDx=0;exitDy=0;exitPerimeter=0;" edge="1" parent="1" source="15" target="5">
                    <mxGeometry width="50" height="50" relative="1" as="geometry">
                        <mxPoint x="424" y="322.68342974766665" as="sourcePoint"/>
                        <mxPoint x="173" y="263" as="targetPoint"/>
                    </mxGeometry>
                </mxCell>
                <mxCell id="18" value="" style="endArrow=none;html=1;exitX=0;exitY=0.5;exitDx=0;exitDy=0;strokeColor=#CC0000;strokeWidth=3;" edge="1" parent="1" source="14">
                    <mxGeometry width="50" height="50" relative="1" as="geometry">
                        <mxPoint x="490" y="290" as="sourcePoint"/>
                        <mxPoint x="240" y="360" as="targetPoint"/>
                    </mxGeometry>
                </mxCell>
                <mxCell id="19" value="" style="endArrow=none;html=1;exitX=0;exitY=0.5;exitDx=0;exitDy=0;strokeColor=#CC0000;strokeWidth=3;entryX=1;entryY=0.5;entryDx=0;entryDy=0;" edge="1" parent="1" target="14">
                    <mxGeometry width="50" height="50" relative="1" as="geometry">
                        <mxPoint x="613.9999999999998" y="360" as="sourcePoint"/>
                        <mxPoint x="532.0000000000002" y="360" as="targetPoint"/>
                    </mxGeometry>
                </mxCell>
                <mxCell id="20" value="" style="endArrow=none;html=1;exitX=0.5;exitY=1;exitDx=0;exitDy=0;strokeColor=#CC0000;strokeWidth=3;" edge="1" parent="1" source="14">
                    <mxGeometry width="50" height="50" relative="1" as="geometry">
                        <mxPoint x="341.9999999999998" y="380" as="sourcePoint"/>
                        <mxPoint x="427" y="510" as="targetPoint"/>
                    </mxGeometry>
                </mxCell>
                <mxCell id="21" value="&lt;font style=&quot;font-size: 16px;&quot; face=&quot;CMU Serif&quot;&gt;Distance&lt;/font&gt;" style="text;html=1;strokeColor=none;fillColor=none;align=center;verticalAlign=middle;whiteSpace=wrap;rounded=0;strokeWidth=3;rotation=16;" vertex="1" parent="1">
                    <mxGeometry x="240" y="220" width="60" height="30" as="geometry"/>
                </mxCell>
                <mxCell id="22" value="&lt;font style=&quot;font-size: 16px;&quot; face=&quot;CMU Serif&quot;&gt;Distance&lt;/font&gt;" style="text;html=1;strokeColor=none;fillColor=none;align=center;verticalAlign=middle;whiteSpace=wrap;rounded=0;strokeWidth=3;rotation=51;" vertex="1" parent="1">
                    <mxGeometry x="365" y="160" width="60" height="30" as="geometry"/>
                </mxCell>
                <mxCell id="23" value="&lt;font style=&quot;font-size: 16px;&quot; face=&quot;CMU Serif&quot;&gt;Distance&lt;/font&gt;" style="text;html=1;strokeColor=none;fillColor=none;align=center;verticalAlign=middle;whiteSpace=wrap;rounded=0;strokeWidth=3;rotation=-50;" vertex="1" parent="1">
                    <mxGeometry x="440" y="165" width="60" height="30" as="geometry"/>
                </mxCell>
                <mxCell id="25" value="&lt;font style=&quot;font-size: 16px;&quot; face=&quot;CMU Serif&quot;&gt;Distance&lt;/font&gt;" style="text;html=1;strokeColor=none;fillColor=none;align=center;verticalAlign=middle;whiteSpace=wrap;rounded=0;strokeWidth=3;rotation=-18;" vertex="1" parent="1">
                    <mxGeometry x="550" y="220" width="60" height="30" as="geometry"/>
                </mxCell>
            </root>
        </mxGraphModel>
    </diagram>
</mxfile>